<?xml version="1.0"?>
<svg xmlns="http://www.w3.org/2000/svg" xmlns:xlink="http://www.w3.org/1999/xlink" xmlns:svgjs="http://svgjs.com/svgjs" version="1.1" width="512" height="512" x="0" y="0" viewBox="0 0 508.008 508.008" style="enable-background:new 0 0 512 512" xml:space="preserve" class=""><g><g xmlns="http://www.w3.org/2000/svg"><g><path d="m120.057 179.589c-16.409 0-29.766 13.357-29.766 29.766 0 12.5 7.892 23.749 19.651 28.008l59.736 21.612-21.612-59.75c-4.26-11.744-15.51-19.636-28.009-19.636z" fill="#ffffff" data-original="#000000" style="" class=""/><path d="m298.653 209.355c0-16.409-13.357-29.766-29.766-29.766-12.5 0-23.749 7.892-28.008 19.651l-21.612 59.736 59.75-21.612c11.744-4.26 19.636-15.509 19.636-28.009z" fill="#ffffff" data-original="#000000" style="" class=""/><path d="m209.355 198.872 3.532-9.763c8.502-23.502 31.015-39.286 56-39.286 32.833 0 59.532 26.699 59.532 59.532 0 24.985-15.784 47.498-39.271 56l-9.765 3.532h228.625v-178.597h-298.653z" fill="#ffffff" data-original="#000000" style="" class=""/><path d="m99.811 265.355c-23.502-8.502-39.286-31.015-39.286-56 0-32.833 26.699-59.532 59.532-59.532 24.985 0 47.498 15.784 56 39.271l3.532 9.765v-108.569h-179.589v178.596h109.574z" fill="#ffffff" data-original="#000000" style="" class=""/><path d="m292.025 330.919-16.51 24.766-66.16-44.102v106.134h298.653v-119.064h-264.378z" fill="#ffffff" data-original="#000000" style="" class=""/><path d="m179.589 311.583-66.16 44.102-16.511-24.766 48.395-32.266h-145.313v119.064h179.589z" fill="#ffffff" data-original="#000000" style="" class=""/></g></g></g></svg>
